<?xml version="1.0" encoding="UTF-8"?>
<svg id="SKLogo" xmlns="http://www.w3.org/2000/svg" width="322.5678" height="161.1616" viewBox="0 0 322.5678 161.1616">
  <defs>
    <style>


      @import url('../CSS/SvgStyling.css');


      
    </style>
  </defs>


  <a href="../index.html" target="_parent">

  <g class="allContent">

  
  
  <g id="Graphic">

    <circle cx="150" cy="70" r="200" />
    <rect class="Cpaths" x="76.3467" y="7.2162" width="14.6667" height="20.6979" />
    <path class="logoContent" d="M85.8623,26.7735c.0104-1.5052.0677-2.7865.3698-3.8594.2448-.8698.9375-1.9583,1.6667-3.1042,1.7083-2.6927,4.0521-6.375,1.3125-9.8021-1.4531-1.8229-4.3229-2.7708-6.974-2.3125-2.2969.401-4.0052,1.776-4.6875,3.776-.8698,2.526.5521,4.9427,1.5156,6.5573l2.9635-1.5729-.0625-.099c-.724-1.2135-1.6198-2.7188-1.25-3.8021.3594-1.0521,1.3385-1.4271,2.0938-1.5573,1.4323-.25,3.0938.2344,3.7813,1.099,1.0729,1.3438.4323,2.8438-1.5208,5.9167-.8281,1.3021-1.6875,2.6458-2.0625,3.9948-.3854,1.375-.5208,2.9635-.5521,4.7708.5729-.0104,1.151-.0208,1.7448-.0208.5625,0,1.1146.0104,1.6615.0156"/>
    <path class="logoContent" d="M73.2477,43.5496c-3.4063.2917-6.8177.8125-10.0573,1.9323-.4635.1615-.7813.2969-.7604.2917l1.1094,2.2135c.0208-.0104.1823-.1146.5833-.3229,1.6458-.8698,3.4167-1.5104,5.1875-2.0833,3.1354-1.0208,6.349-1.6719,9.6146-2.1458.4635-.0677.7292-.1042.7292-.1042h-.7396c-1.8906-.0052-3.7813.0573-5.6667.2188"/>
    <path class="logoContent" d="M75.7112,62.5027c-2.4271.2448-4.8281.599-7.2031,1.125-.8333.1823-1.6615.3958-2.4688.651-.1563.0521-1.8854.7188-1.8906.7604-.0104.2396.5156.8385.6354,1.0417.2188.3542.4479.7083.6563,1.0729,1.4323-1.0729,3.0521-1.7448,4.7135-2.3802,1.8438-.7292,3.7188-1.3438,5.625-1.8854.5-.1458.9948-.276,1.4948-.4063.3646-.099.5677-.151.5677-.151,0,0-.2135.0156-.5833.0469-.5156.0365-1.0365.0781-1.5469.125"/>
    <path class="logoContent" d="M97.2529,49.3569c-2.0417-.0052-4.0729.0729-5.5885.1563-1.5208.0885-2.526.1771-2.526.1771,0,0,1.0104.0677,2.5208.2135,3.6302.3542,7.3177.7917,10.8281,1.8229.75.2188,1.4844.4844,2.1979.8073,0,0,.875-2.2656.8906-2.3073-.8802-.2344-1.7552-.4271-2.6615-.5469-1.5677-.2135-3.6198-.3177-5.6615-.3229"/>
    <path class="logoContent" d="M93.0289,82.9662c-.5.0313-.9115.0781-1.2031.1094-.2865.0313-.4531.0573-.4531.0573,0,0,.1667.0104.4531.0469s.6979.0885,1.1875.1719c2.8958.4844,5.7083,1.3073,8.4375,2.401,0,0,.6667-2.3594.6771-2.3802,0-.0365-5.1042-.4896-5.6823-.5-1.1406-.0156-2.276.0156-3.4167.0938"/>
    <path class="logoContent" d="M77.8935,97.2735c-.5104,0-1.0417.0938-1.5469.1563-1.4063.1719-2.7917.4323-4.1667.7552-1,.2344-2,.5-2.9635.8594-.1406.0521-1.7135.7656-1.7031.8073.026.0313,1.474,1.9896,1.474,1.9896,0,0,.0104-.0104.026-.0208.0104-.0104.0104-.0156.0156-.0208.0104-.0052.0156-.0156.026-.0208.7396-.75,1.7813-1.2865,2.7135-1.7552.651-.3281,1.3021-.6458,1.9688-.9323,1.375-.6042,2.7708-1.1406,4.2031-1.5938.2083-.0677.3906-.125.5365-.1719.3021-.0938.4688-.1458.4688-.1458,0,0-.1771.0156-.4896.0417-.151.0156-.3438.0313-.5625.0521"/>
    <path class="logoContent" d="M99.4925,105.7058c-.3333-.0885-.8177-.2188-1.3906-.3281-2.7135-.526-5.5156-.5781-8.2708-.4427-1.1146.0573-1.849.1302-1.849.1302,0,0,.7344.0781,1.8281.2552,2.5885.4219,5.2448,1.0156,7.6875,2.0573.4844.2083.8698.401,1.1302.5365.2604.1458.4063.224.4063.224l.9896-2.2708s-.0469-.0104-.1406-.0417c-.0885-.026-.2188-.0677-.3906-.1198"/>
    <path class="logoContent" d="M96.8987,64.7944c-1.7344.0156-3.4635.0781-4.7604.1354-1.2917.0625-2.151.1146-2.151.1146,0,0,.8542.099,2.1354.2708s2.9844.4219,4.6719.7135,3.3646.6354,4.5521.974c.5781.1667,1.1979.3281,1.7083.6563.1146-.2031,1.026-2.25,1.0833-2.2292-.7708-.2917-1.5938-.401-2.4115-.4844-1.349-.125-3.0885-.1667-4.8281-.151"/>
    <path class="logoContent" d="M76.1071,75.6381c-1.6563.2344-3.3281.4948-4.9531.9063-2.0156.5052-4.0938,1-5.875,2.125h-.0052c.1458.1823,1.5052,1.9635,1.4792,1.9896.3125-.2813.6458-.5208.9948-.7552.349-.2292.7083-.4531,1.0677-.6615,1.2604-.7344,2.5833-1.3542,3.9323-1.9115,1.4375-.5938,2.8958-1.1302,4.3802-1.5885.2396-.0729.4427-.1406.6146-.1927.3438-.1042.5417-.1667.5417-.1667,0,0-.2031.026-.5625.0625-.5365.0625-1.0781.1198-1.6146.1927"/>
    <path class="logoContent" d="M86.1071,67.0808c-.0104-.0052-.1667-.026-.4479-.0573s-.6823-.0781-1.1771-.0938c-1.3177-.0469-2.6198.0313-3.9219.2396-1.1458.1823-2.2969.526-3.3646.974-.6354.2656-1.2813.5573-1.8594.9427-.0573.0365-.0885.0729-.0781.0938s.0573.0208.125,0c.6615-.1771,1.3177-.3333,1.9844-.4844,1.1094-.25,2.2292-.4323,3.3438-.6458,1.2604-.2448,2.5313-.4063,3.7969-.6198.4844-.0833.8802-.1302,1.1563-.1719s.4323-.0677.4479-.0729c.0677-.0104.1094-.0313.1094-.0521,0-.026-.0417-.0417-.1146-.0521"/>
    <path class="logoContent" d="M96.831,57.5079c-.0052-.0052-.0521-.0313-.125-.0781-.0365-.0208-.0833-.0469-.1354-.0781-.0625-.0313-.125-.0677-.1927-.1042-.0729-.0365-.1563-.0781-.2448-.1198-.0938-.0417-.1927-.0833-.2917-.125-.1042-.0521-.2188-.0938-.3385-.1406-.125-.0417-.25-.0938-.3906-.1354-.6406-.2135-1.3125-.3698-1.9792-.4844-.8385-.1458-1.6771-.224-2.4792-.2604-.8073-.0313-1.6458-.0104-2.4844.0417-.6719.0469-1.349.1198-2.0052.2188-.5625.0781-1.0156.1615-1.3333.2292-.3125.0625-.4896.1042-.5052.1094-.0833.0208-.1302.0469-.125.0677,0,.0208.0521.0365.1354.0417.0365,0,.9271.026,1.8542.0469.8125.026,1.4792.0417,1.9948.0573.8281.026,1.6458.0469,2.4323.0781s1.599.0677,2.4219.1302c.651.0469,1.3125.1146,1.9583.2083.1354.0208.2656.0469.3906.0677.1198.0208.2396.0417.349.0625.1042.026.2031.0469.3021.0677.0938.0156.1771.0417.2552.0625.0729.0156.1406.0313.2031.0469.0573.0208.1094.0365.151.0469.0833.026.1302.0365.1354.0417.0833.0208.1354.0208.1458.0052.0104-.0208-.026-.0625-.099-.1042"/>
    <path class="logoContent" d="M84.4196,50.9871c-.0156-.0052-.2396-.0833-.6458-.1719-2.4271-.5104-5-.2604-7.4219.1406-1.8906.3125-3.7604.8021-5.5104,1.5833-.6667.2969-1.1823.5833-1.5313.8021-.3438.2188-.5313.3698-.5417.3802-.0833.0677-.125.1198-.1146.1354.0156.0208.0781,0,.1719-.0417.0156-.0104.2188-.1146.5938-.2656.375-.1458.9167-.3438,1.599-.5417,1.7917-.5313,3.6302-.8698,5.474-1.1771,2.3802-.3906,4.8385-.849,7.2552-.7813.401.0104.6302.0417.6458.0417.1042.0104.1667.0104.1771-.0104.0052-.0208-.0521-.0625-.151-.0938"/>
    <path class="logoContent" d="M81.8883,36.6798c-.0156,0-.1823-.0521-.474-.1302-1.7865-.4688-3.6927-.5104-5.5156-.276-1.4063.1823-2.7917.5313-4.1198,1.0365-.5.1875-.901.3594-1.1771.4948-.2708.125-.4271.2083-.4375.2135-.0677.0417-.1042.0781-.099.099.0104.0208.0625.0208.1354.0052.0156-.0052.2031-.0417.4792-.099.2917-.0573.7135-.1406,1.2344-.2344,1.3594-.25,2.7292-.4531,4.099-.6302,1.7813-.2292,3.5729-.3958,5.3698-.375.2813,0,.474.0052.4896.0052.0729,0,.125-.0156.125-.0365.0052-.0208-.0365-.0521-.1094-.0729"/>
    <path class="logoContent" d="M95.6696,43.9975c-.0104-.0052-.1667-.0677-.4375-.1667-1.6615-.6198-3.4427-.8698-5.2083-.9323-1.9063-.0625-3.8698.1302-5.7135.6198-.0729.0156-.1146.0417-.1094.0677,0,.0208.0469.0365.125.0365,1.8906.0885,3.7813.1042,5.6719.1667.7083.026,1.4479.0365,2.1927.0729,1,.0313,1.9948.0938,2.9896.1979.2865.026.4479.0417.4635.0417.0729.0052.125-.0052.1302-.026s-.0365-.0469-.1042-.0781"/>
    <path class="logoContent" d="M105.9092,35.9298c-.5729-.2813-1.1823-.4948-1.7969-.6719-.9844-.2865-2.1302-.5-3.3438-.6406-1.2188-.1458-2.5104-.2135-3.7917-.2396-2.5729-.0469-5.1198.099-7.0208.2604s-3.1615.3281-3.1615.3281c0,0,1.2708-.0156,3.1719.0573,1.8958.0729,4.4271.2396,6.9115.5885,1.2396.1771,2.474.3958,3.5938.6719,1.6667.401,3.8646.9115,5.0417,2.2708.0677.0729.1042.1146.1094.1198-.0156-.0156,1.5833-1.5885,1.75-1.75.0573-.0573-1.3333-.9271-1.4635-.9948"/>
    <path class="logoContent" d="M97.6279,76.5548c-.0104-.0052-.125-.0625-.3385-.1563-1.2969-.5729-2.6667-.8698-4.0781-.9896-.2865-.0313-.5833-.0365-.8802-.0469-1.0938-.0313-2.2344.0781-3.3021.3125-.224.0469-.3542.0833-.3646.0885-.0573.0156-.0885.0365-.0885.0573,0,.026.0417.0417.099.0469.0104,0,.1563.0156.3698.0417,1.0781.1198,2.1615.2031,3.2448.3125.2865.0313.5729.0469.849.0729,1.3646.1302,2.7292.1979,4.0938.3333.224.0208.3594.026.3698.0313.0573,0,.099-.0104.1042-.0313s-.0208-.0469-.0781-.0729"/>
    <path class="logoContent" d="M81.1383,88.8048c-.0156-.0052-.1615-.026-.4219-.0521-1.8229-.2031-3.7135-.0625-5.4792.4323-1.2917.3542-2.5625.8906-3.6823,1.625-.2188.1458-.3385.2396-.349.2448-.0573.0417-.0781.0781-.0677.099s.0521.0156.1198-.0052c.0104,0,.151-.0469.3958-.125,1.2448-.3854,2.5208-.7188,3.7969-.9948,1.7552-.375,3.5052-.7396,5.2708-1.0417.2552-.0469.4063-.0729.4167-.0781.0625-.0104.1042-.0313.1042-.0521,0-.026-.0417-.0417-.1042-.0521"/>
    <path class="logoContent" d="M85.6592,81.284c-.0104-.0052-.1667-.026-.4479-.0573-1.6771-.1927-3.401-.0417-5.0573.2865-.6823.1406-1.3854.3073-2.0833.5208-.9323.2708-1.849.6042-2.7396,1-.2552.1094-.401.1823-.4115.1875-.0625.0313-.099.0625-.0938.0833.0104.026.0573.0313.125.0208.0156,0,.1875-.026.4479-.0677.9531-.1406,1.901-.3021,2.849-.4792.7083-.1302,1.4063-.2552,2.0781-.3906,1.625-.3281,3.25-.6771,4.8906-.9271.276-.0417.4323-.0677.4427-.0729.0729-.0104.1146-.0313.1146-.0521,0-.026-.0417-.0417-.1146-.0521"/>
    <path class="logoContent" d="M91.2164,99.9454c-.0156-.0052-.2292-.0469-.6042-.1146-.1927-.0313-.4219-.0625-.6875-.099-2.0677-.3021-4.2031-.3073-6.2708-.026-1.776.2396-3.5469.7083-5.1771,1.4479-.625.2865-1.1094.5521-1.4375.75s-.5.3333-.5156.3438c-.0781.0573-.1198.1042-.1094.125.0104.0156.0729.0052.1615-.0313.0156-.0104.2135-.0938.5677-.224.3542-.1354.8646-.3073,1.5052-.4948,1.6667-.474,3.401-.8229,5.125-1.0365,2.0365-.25,4.0833-.4219,6.1302-.5.2708-.0052.5-.0156.6927-.0208.375-.0052.5938-.0156.6094-.0156.099,0,.1615-.0156.1615-.0365.0052-.026-.0521-.0521-.151-.0677"/>
    <path class="logoContent" d="M91.2112,111.7996c-.0156-.0052-.1719-.0469-.4531-.1146-.9948-.2396-1.9948-.3802-3.0104-.4583-.7448-.0313-1.5-.0521-2.2448.0052l-.5469.0469c-1.724.1667-3.4635.5677-5.0156,1.3542-.0677.0365-.099.0729-.0938.0938s.0573.0208.1302.0104c1.6406-.2708,3.3698-.4688,5.0573-.5781.901-.0573,1.8073-.1042,2.7083-.1667.9948-.0625,1.9896-.0573,2.9896-.0729.2865-.0052.4531-.0156.4635-.0156.0729,0,.125-.0156.125-.0417.0052-.0208-.0365-.0469-.1094-.0625"/>
    <path class="logoContent" d="M98.6019,93.7058c-1.3229-1.1354-3.276-1.5573-4.9479-1.8229-1.724-.276-3.4896-.3333-5.2344-.1979-.2865.0208-.4531.0365-.4635.0365-.0729.0104-.1198.0313-.1198.0521s.0417.0469.1146.0573c.0156.0052.1927.0365.4583.0885,1.6979.3125,3.401.5729,5.1094.8385,1.7292.276,3.3802.5417,5.349,1.3646.0625.026.1042.0573.1198.0417s-.0052-.0625-.0469-.1198c-.0104-.0104-.1146-.1458-.3385-.3385"/>
    <path class="logoContent" d="M79.7581,108.2319c-.0104,0-.1302-.0104-.3333-.0156-.9948-.0417-1.9948.026-2.9688.2396-.2552.0573-.5156.1146-.7656.1979-.8698.2865-1.6979.625-2.4375,1.1719-.2083.1563-.4063.3229-.5885.5052-.0625.0625-.5938.5-.4948.5833.0313.0313.3385-.1094.4948-.1771,1.0677-.4375,1.875-.8229,2.8333-1.099.9531-.2708,1.9063-.5469,2.849-.8438.3698-.1198.7396-.2292,1.1094-.349.1927-.0625.3073-.1042.3125-.1042.0521-.0208.0833-.0469.0781-.0677,0-.0208-.0365-.0365-.0885-.0417"/>
    <path class="logoContent" d="M105.6071,36.6642l-.0052.026-7.9323,78.8229c-.6875.5417-3.7396,2.3854-13.4688,2.3854s-12.7813-1.8438-13.4688-2.3854l-7.9271-78.7552v-.0365l-.0156-.0573c-.0156-.1302-.1667-1.4063,1.0938-2.901,1.1563-1.3646,3.1042-2.4792,5.7865-3.3073,3.625-1.125,8.5104-1.6927,14.5313-1.6927s10.9063.5677,14.5313,1.6927c2.6823.8281,4.6302,1.9427,5.7813,3.3073,1.2604,1.4896,1.1146,2.7656,1.0938,2.901ZM106.1279,32.5756c-1.3802-1.6875-3.625-3.0313-6.6771-3.9948-3.8333-1.2083-8.9635-1.8229-15.25-1.8229s-11.4219.6146-15.25,1.8229c-3.0521.9635-5.3021,2.3073-6.6823,3.9948-1.6927,2.0729-1.5104,4.0104-1.4531,4.4063l7.9896,79.349.1458.2135c.1667.2344.8646,1.0573,3.0573,1.8333,2.8385,1.0104,6.9427,1.526,12.1927,1.526s9.3542-.5156,12.1927-1.526c2.1875-.776,2.8906-1.599,3.0521-1.8333l.151-.2135,7.9896-79.349c.0573-.3958.2396-2.3333-1.4583-4.4063"/>
    <rect class="Cpaths" x="81.68" y="118.5808" width="5.3333" height="21.6354"/>
    <path class="logoContent" d="M82.456,119.8829v6.7188l1.6979,13.8177,1.7031-13.8177v-6.7188c-.5365.0104-1.0885.0208-1.6563.0208-.599,0-1.1771-.0104-1.7448-.0208"/>
    <path class="logoContent" d="M82.456,118.6537v1.2292c.5677.0104,1.1458.0208,1.7448.0208.5677,0,1.1198-.0104,1.6563-.0208v-1.2292h-3.401"/>
    <path class="logoContent" d="M95.7737,69.1798c-.276,0-.5.224-.5.5s.224.5.5.5.4948-.224.4948-.5-.2188-.5-.4948-.5"/>
    <path class="logoContent" d="M68.2529,57.1121c-.276,0-.5.224-.5.5s.224.4948.5.4948c.2708,0,.4948-.2188.4948-.4948s-.224-.5-.4948-.5"/>
    <path class="logoContent" d="M65.8987,39.7892c-.276,0-.5.224-.5.4948,0,.276.224.5.5.5s.5-.224.5-.5c0-.2708-.224-.4948-.5-.4948"/>
    <path class="logoContent" d="M82.0185,31.8152c-.276,0-.5.224-.5.5s.224.5.5.5.5-.224.5-.5-.224-.5-.5-.5"/>
    <path class="logoContent" d="M99.5289,42.8308c-.276,0-.5.224-.5.5s.224.4948.5.4948.5-.2188.5-.4948-.224-.5-.5-.5"/>
    <path class="logoContent" d="M90.5654,87.5079c-.276,0-.5.2188-.5.4948s.224.5.5.5.5-.224.5-.5-.224-.4948-.5-.4948"/>
    <path class="logoContent" d="M71.3206,83.3465c-.276,0-.5.224-.5.5s.224.5.5.5.5-.224.5-.5-.224-.5-.5-.5"/>
    <path class="logoContent" d="M83.1019,72.3308c-.276,0-.5.224-.5.5s.224.5.5.5.5-.224.5-.5-.224-.5-.5-.5"/>
    <path class="logoContent" d="M79.8467,59.8048c-.276,0-.5.224-.5.5s.224.5.5.5.5-.224.5-.5-.224-.5-.5-.5"/>
    <path class="logoContent" d="M82.5185,94.2058c-.276,0-.5.224-.5.5s.224.4948.5.4948.4948-.2188.4948-.4948-.2188-.5-.4948-.5"/>
    <path class="logoContent" d="M84.9508,106.5027c-.2708,0-.4948.224-.4948.5s.224.5.4948.5c.276,0,.5-.224.5-.5s-.224-.5-.5-.5"/>
    <rect class="Cpaths" x="104.4873" y="29.3673" width="35.0677" height="36.9271"/>
    <path class="logoContent" d="M137.6748,35.9194c-.1354.8594-.6875,1.5417-1.599,1.9792-.401.1927-.9323.2813-1.4896.375-.9271.151-1.9792.3281-2.8385,1.0469-1.0469.8802-1.5938,2.1979-2.0365,3.2604-.2448.5938-.526,1.2708-.7604,1.4688-.8646.724-1.3906.8698-2.7969,1.2708-.2292.0677-.4844.1354-.7604.2188-1.375.401-2.2969.7969-3.0313,1.4167-.7396.6198-1.2917,1.4583-1.9427,2.7448-.6615,1.3177-3.8802,3.9635-5.7969,5.5417-.1406.1146-.2708.224-.401.3333l-5.1146-6.0938,19.6406-16.4844c1.0781-.901,2.4896-1.3021,3.4896-1.4792,1.4948-.2604,3.0417.2448,4.2448,1.3802.9063.8646,1.3542,1.9896,1.1927,3.0208ZM137.805,31.5027c-1.6458-1.5625-3.7969-2.2448-5.901-1.8802-1.2292.2188-2.9896.724-4.3906,1.901l-21.1667,17.7604-.276,2.7448,1.5573-1.3125,5.1146,6.0938-7.8125,6.5521-.276,2.7448,10.0625-8.4427c.3333-.2813.7188-.5938,1.1302-.9323,2.9792-2.4531,5.5104-4.6146,6.2969-6.1667,1.0573-2.1094,1.5573-2.526,3.7917-3.1771.2708-.0781.5156-.151.7448-.2135,1.5-.4271,2.3281-.6615,3.5052-1.651.5938-.5.9427-1.3281,1.3073-2.2083.375-.9115.8073-1.9427,1.4896-2.5156.4583-.3854,1.1667-.5052,1.9167-.6302.6719-.1094,1.3646-.224,2.0104-.5365,1.4844-.7083,2.4323-1.9219,2.6667-3.4167.2604-1.651-.401-3.4167-1.7708-4.7135"/>
    <rect class="Cpaths" x="28.555" y="82.5808" width="38.4583" height="33.3333"/>
    <path class="logoContent" d="M64.805,97.0287c-4.9635,4.1667-9.8333,7.599-14.4635,10.1875-3.6979,2.0729-7.2552,3.6146-10.5677,4.5938-2.75.8073-4.875,1.0885-6.3333,1.1615l32.2969-27.099-.2344-2.3177-36.7344,30.8229,1.9427.4063c.1354.026,3.3802.6667,9.3906-1.0677,3.4688-1,7.1771-2.5938,11.026-4.7344,4.7865-2.6615,9.8021-6.1875,14.9167-10.474l.8906-.75-.2344-2.3177-1.8958,1.5885"/>
    <path class="logoContent" d="M132.1071,36.5496c-.6198.5208-1.5417.4375-2.0625-.1823-.5156-.6146-.4375-1.5365.1823-2.0573s1.5417-.4375,2.0573.1823c.5208.6146.4375,1.5365-.1771,2.0573ZM124.9717,42.534c-.6146.5208-1.5365.4375-2.0573-.1771-.5208-.6198-.4375-1.5417.1771-2.0625.6198-.5208,1.5417-.4375,2.0625.1771.5208.6198.4375,1.5417-.1823,2.0625ZM117.8415,48.5183c-.6198.5208-1.5417.4375-2.0573-.1823-.5208-.6146-.4427-1.5365.1771-2.0573s1.5417-.4375,2.0625.1823c.5156.6146.4375,1.5365-.1823,2.0573ZM137.1435,32.2006c-1.3646-1.2917-3.1875-1.9583-5.0729-1.625-1.3906.2396-2.849.7656-3.9427,1.6823-.0208.0208-8.3958,7.0521-20.224,16.974l6.1927,7.6927c2.1667-1.8125,6.2917-5.0156,7.1823-6.7917,1.1823-2.3385,1.9063-2.9479,4.3854-3.6719,1.9792-.5729,2.7188-.6823,3.9063-1.6771.9375-.7865,1.25-3.4323,2.7969-4.724,1.1302-.9531,2.8698-.6875,4.1302-1.2917,2.8125-1.349,2.7448-4.5781.6458-6.5677"/>
    <path class="logoContent" d="M43.2477,40.4715c.5156-.6146,1.4375-.6979,2.0573-.1771s.7031,1.4427.1823,2.0625c-.5208.6146-1.4427.6979-2.0625.1771s-.6979-1.4427-.1771-2.0625ZM50.3779,46.461c.5208-.6198,1.4427-.7031,2.0625-.1823.6146.5208.6979,1.4427.1771,2.0573-.5156.6198-1.4427.7031-2.0573.1823-.6198-.5208-.7031-1.4427-.1823-2.0573ZM38.3519,36.3673c-.5156.6198-1.4375.7031-2.0573.1823s-.6979-1.4427-.1823-2.0573c.5208-.6198,1.4427-.7031,2.0625-.1823s.6979,1.4427.1771,2.0573ZM36.331,30.5756c-1.8854-.3333-3.7083.3333-5.0729,1.625-2.099,1.9896-2.1667,5.2188.6458,6.5677,1.2604.6042,2.9948.3385,4.1302,1.2917,1.5417,1.2917,1.8542,3.9375,2.7969,4.724,1.1875.9948,1.9271,1.1042,3.9063,1.6771,2.4792.724,3.2031,1.3333,4.3802,3.6719.8958,1.776,5.0208,4.9792,7.1875,6.7917l6.1927-7.6927c-11.8281-9.9219-20.2031-16.9531-20.2292-16.974-1.0938-.9167-2.5469-1.4427-3.9375-1.6823"/>
    <rect class="Cpaths" x="28.555" y="29.2475" width="35.7917" height="37.3333"/>
    <path class="logoContent" d="M53.7789,55.2423c-1.9219-1.5781-5.1354-4.224-5.8021-5.5417-.6458-1.2865-1.2031-2.125-1.9375-2.7448-.7396-.6198-1.6563-1.0156-3.0313-1.4167-.276-.0833-.5313-.151-.7656-.2188-1.4063-.401-1.9271-.5469-2.7917-1.2708-.2344-.1979-.5156-.875-.7604-1.4688-.4427-1.0625-.9896-2.3802-2.0365-3.2604-.8594-.7188-1.9115-.8958-2.8385-1.0469-.5625-.0938-1.0885-.1823-1.4948-.375-.9063-.4375-1.4583-1.1198-1.5938-1.9792-.1615-1.0313.2865-2.1563,1.1927-3.0208,1.2031-1.1354,2.75-1.6406,4.2448-1.3802.9948.1771,2.4115.5781,3.4844,1.4792l19.6458,16.4844-5.1146,6.0938c-.1302-.1094-.2656-.2188-.401-.3333ZM55.6592,56.81l5.1094-6.0938,1.5625,1.3125-.276-2.7448-21.1667-17.7604c-1.401-1.1771-3.1615-1.6823-4.3906-1.901-2.1042-.3646-4.2552.3177-5.901,1.8802-1.3698,1.2969-2.0313,3.0625-1.7708,4.7135.2344,1.4948,1.1771,2.7083,2.6615,3.4167.651.3125,1.3438.4271,2.0104.5365.7552.125,1.4583.2448,1.9167.6302.6875.5729,1.1146,1.6042,1.4948,2.5156.3646.8802.7083,1.7083,1.3021,2.2083,1.1771.9896,2.0052,1.224,3.5052,1.651.2292.0625.4792.1354.75.2135,2.2344.651,2.7292,1.0677,3.7917,3.1771.7813,1.5521,3.3177,3.7135,6.2969,6.1667.4115.3385.7969.651,1.1302.9323l10.0625,8.4427-.276-2.7448-7.8125-6.5521"/>
    <rect class="Cpaths" x="101.2998" y="83.2996" width="38.2552" height="31.8802"/>
    <path class="logoContent" d="M102.8987,83.5548l-.2344,2.3177,32.2969,27.099c-1.4583-.0729-3.5833-.3542-6.3333-1.1615-3.3125-.9792-6.8698-2.5208-10.5677-4.5938-4.6302-2.5885-9.5-6.0208-14.4688-10.1875l-1.8906-1.5885-.2344,2.3177.8906.75c5.1146,4.2865,10.1302,7.8125,14.9115,10.474,3.849,2.1406,7.5573,3.7344,11.026,4.7344,6.0156,1.7344,9.2604,1.0938,9.3958,1.0677l1.9427-.4063-36.7344-30.8229"/>
  </g>
  <g id="Text">
    <path class="logoContent" d="M157.6108,70.5404c-2.0729,0-3.8958-.375-5.4792-1.125s-2.8281-1.8177-3.7292-3.2083c-.8906-1.401-1.3333-3.0729-1.3333-5.0208h5.9583c0,1.3229.4583,2.3021,1.375,2.9375.9167.625,1.9687.9375,3.1667.9375.75,0,1.4479-.1146,2.1042-.3542.6667-.25,1.2135-.6094,1.6458-1.0833.4271-.4844.6458-1.0677.6458-1.75,0-.6927-.25-1.2396-.75-1.6458-.4896-.401-1.1458-.7292-1.9792-.9792-.8229-.2604-1.724-.5104-2.7083-.75-1.0156-.2344-2.0573-.5208-3.125-.8542-1.0573-.3333-2.0417-.776-2.9583-1.3333-.9063-.5677-1.625-1.3229-2.1667-2.2708-.5417-.9427-.8125-2.1354-.8125-3.5833,0-2.6094.8854-4.625,2.6667-6.0417,1.776-1.4167,4.1771-2.125,7.2083-2.125,3.1094,0,5.5208.7865,7.2292,2.3542,1.7083,1.5729,2.5625,3.7031,2.5625,6.3958h-5.8333c0-1.1667-.4167-2.026-1.25-2.5833-.8229-.5521-1.7812-.8333-2.875-.8333-.9583,0-1.8438.2083-2.6458.625-.7917.4063-1.1875,1.0521-1.1875,1.9375,0,.6406.2344,1.1562.7083,1.5417.4844.375,1.125.6875,1.9167.9375.7917.2396,1.6667.474,2.625.7083,1.026.25,2.0833.5573,3.1667.9167,1.0938.349,2.1094.8229,3.0417,1.4167.9271.599,1.6875,1.3906,2.2708,2.375.5833.974.875,2.2083.875,3.7083,0,1.974-.474,3.6146-1.4167,4.9167-.9479,1.2917-2.1979,2.2604-3.75,2.8958-1.5573.625-3.2813.9375-5.1667.9375Z"/>
    <path class="logoContent" d="M183.1749,64.9571h2.5625v5.0417h-4c-2.3073,0-4.125-.6667-5.4583-2s-2-3.1667-2-5.5v-8.9375h-3.8125v-1.2083l8.3125-8.8125h1.0625v5.4792h5.7708v4.5417h-5.6667v8.2083c0,1,.276,1.7865.8333,2.3542.5521.5573,1.3542.8333,2.3958.8333Z"/>
    <path class="logoContent" d="M190.2918,46.2279v-5.2917h5.6667v5.2917h-5.6667ZM190.2918,69.9987v-20.9792h5.6667v20.9792h-5.6667Z"/>
    <path class="logoContent" d="M212.7724,48.8946h1.875v5.375h-2.4583c-1.599,0-2.7448.375-3.4375,1.125-.6823.75-1.0208,1.9792-1.0208,3.6875v10.9167h-5.6667v-20.9792h3.6458l1,2.5625c1.4271-1.7917,3.4479-2.6875,6.0625-2.6875Z"/>
    <path class="logoContent" d="M218.5374,69.9987v-28.5625h5.6667v28.5625h-5.6667Z"/>
    <path class="logoContent" d="M230.3096,46.2279v-5.2917h5.6667v5.2917h-5.6667ZM230.3096,69.9987v-20.9792h5.6667v20.9792h-5.6667Z"/>
    <path class="logoContent" d="M254.0401,48.5196c2.3854,0,4.2708.8021,5.6458,2.3958,1.3854,1.5833,2.0833,3.7083,2.0833,6.375v12.7083h-5.6667v-11.8125c0-3.1354-1.2187-4.7083-3.6458-4.7083-1.4583,0-2.6146.4948-3.4583,1.4792-.8333.9896-1.25,2.3229-1.25,4v11.0417h-5.6667v-20.9792h3.875l1.125,2.6042c.776-.9583,1.7708-1.7135,2.9792-2.2708,1.2187-.5521,2.5469-.8333,3.9792-.8333Z"/>
    <path class="logoContent" d="M284.584,49.0196h3.6875v18.5417c0,2.1979-.4375,4.0833-1.3125,5.6667-.8646,1.5833-2.099,2.7969-3.7083,3.6458-1.599.8594-3.5,1.2917-5.7083,1.2917-2.849,0-5.224-.6875-7.125-2.0625-1.9063-1.375-3.0937-3.2604-3.5625-5.6458h5.6458c.3021.9427.9427,1.651,1.9167,2.125.9687.4844,1.9792.7292,3.0208.7292,1.4427,0,2.6719-.4375,3.6875-1.3125,1.026-.8646,1.5417-2.0677,1.5417-3.625v-.7917c-.8229.599-1.7396,1.0625-2.75,1.3958-1.0156.3229-2.0937.4792-3.2292.4792-1.9479,0-3.7083-.4635-5.2917-1.3958-1.5729-.9271-2.8229-2.1875-3.75-3.7708-.9167-1.5833-1.375-3.3594-1.375-5.3333,0-1.9583.4583-3.7344,1.375-5.3333.9271-1.5937,2.1771-2.8594,3.75-3.7917,1.5833-.9271,3.3438-1.3958,5.2917-1.3958,1.375,0,2.6562.2396,3.8542.7083,1.1927.4583,2.2396,1.1198,3.1458,1.9792l.8958-2.1042ZM277.3548,64.3946c1.5521,0,2.8333-.5052,3.8333-1.5208,1.0104-1.026,1.5208-2.3333,1.5208-3.9167,0-1.5521-.5-2.8385-1.5-3.8542-.9896-1.026-2.2708-1.5417-3.8542-1.5417-1.5312,0-2.8021.5156-3.8125,1.5417-1.0156,1.0156-1.5208,2.3021-1.5208,3.8542,0,1.5833.5,2.8906,1.5,3.9167,1,1.0156,2.276,1.5208,3.8333,1.5208Z"/>
    <path class="logoContent" d="M171.2775,112.6723h-7.1875l-9.5833-13.2917v13.2917h-5.9167v-27.2083h5.9167v12.5625l8.8958-12.5625h6.875l-9.2917,13.0208,10.2917,14.1875Z"/>
    <path class="logoContent" d="M194.7166,102.1098c0,.5417-.0417,1.099-.125,1.6667h-15.8542c.2344,1.4167.8021,2.5156,1.7083,3.2917.9167.7656,2.0521,1.1458,3.4167,1.1458.9844,0,1.8646-.2135,2.6458-.6458.776-.4271,1.375-1.0208,1.7917-1.7708h5.9792c-.7813,2.2813-2.099,4.0937-3.9583,5.4375-1.8646,1.349-4.0156,2.0208-6.4583,2.0208-2.0729,0-3.9323-.4896-5.5833-1.4583-1.6406-.9687-2.9323-2.2917-3.875-3.9583-.9479-1.6667-1.4167-3.5521-1.4167-5.6667,0-2.0937.4688-3.9792,1.4167-5.6458.9427-1.6667,2.2344-2.9844,3.875-3.9583,1.651-.9688,3.5104-1.4583,5.5833-1.4583,2.151,0,4.0417.5,5.6667,1.5,1.6354,1,2.9062,2.3281,3.8125,3.9792.9167,1.6563,1.375,3.4948,1.375,5.5208ZM183.8624,95.9223c-1.2656,0-2.3333.3542-3.2083,1.0625-.8646.6979-1.4479,1.6615-1.75,2.8958h10.1458c-.8333-2.6354-2.5625-3.9583-5.1875-3.9583Z"/>
    <path class="logoContent" d="M210.8387,91.1098c2.151,0,4.0521.4792,5.7083,1.4375,1.651.9583,2.9479,2.2813,3.8958,3.9583.9583,1.6667,1.4375,3.5573,1.4375,5.6667,0,2.125-.4792,4.0313-1.4375,5.7083-.9479,1.6667-2.2448,2.9792-3.8958,3.9375-1.6562.9583-3.5573,1.4375-5.7083,1.4375-1.2812,0-2.474-.2031-3.5833-.6042-1.1146-.401-2.1042-.9792-2.9792-1.7292l-.6667,1.75h-4.1875v-28.5625h5.6667v8.7083c.8021-.5417,1.6927-.9583,2.6667-1.25.9688-.3021,2-.4583,3.0833-.4583ZM210.3595,107.9015c1.125,0,2.1094-.2396,2.9583-.7292.8594-.5,1.5313-1.1771,2.0208-2.0417.5-.875.75-1.8594.75-2.9583,0-1.0833-.25-2.0521-.75-2.9167-.4896-.875-1.1615-1.5625-2.0208-2.0625-.849-.5104-1.8333-.7708-2.9583-.7708-1.0833,0-2.0625.2604-2.9375.7708-.8646.5-1.5417,1.1875-2.0417,2.0625-.4896.8646-.7292,1.8333-.7292,2.9167,0,1.099.2396,2.0781.7292,2.9375.5.849,1.1771,1.5312,2.0417,2.0417.875.5,1.8542.75,2.9375.75Z"/>
    <path class="logoContent" d="M243.7435,91.6515h4.2292v20.9792h-4.4583l-.4792-1.8542c-.9062.7812-1.9323,1.3906-3.0833,1.8333-1.1562.4271-2.3906.6458-3.7083.6458-2.099,0-3.9792-.4896-5.6458-1.4583-1.6563-.9687-2.9583-2.2917-3.9167-3.9583s-1.4375-3.5625-1.4375-5.6875c0-2.0938.4792-3.9792,1.4375-5.6458.9583-1.6771,2.2604-3,3.9167-3.9583,1.6667-.9583,3.5469-1.4375,5.6458-1.4375,1.3438,0,2.6042.2292,3.7708.6875,1.1667.4479,2.1979,1.0729,3.1042,1.875l.625-2.0208ZM236.7018,107.9015c1.0938,0,2.0729-.2396,2.9375-.7292.875-.5,1.5521-1.1771,2.0417-2.0417.5-.875.75-1.8646.75-2.9792,0-1.0938-.25-2.0729-.75-2.9375-.4896-.875-1.1667-1.5625-2.0417-2.0625-.8646-.5-1.8437-.75-2.9375-.75-1.1146,0-2.099.25-2.9583.75-.849.5-1.5208,1.1875-2.0208,2.0625-.4896.8646-.7292,1.8437-.7292,2.9375,0,1.1146.2396,2.099.7292,2.9583.5.849,1.1719,1.5312,2.0208,2.0417.8594.5,1.8438.75,2.9583.75Z"/>
    <path class="logoContent" d="M265.5036,91.1098c2.151,0,4.0521.4792,5.7083,1.4375,1.651.9583,2.9479,2.2813,3.8958,3.9583.9583,1.6667,1.4375,3.5573,1.4375,5.6667,0,2.125-.4792,4.0313-1.4375,5.7083-.9479,1.6667-2.2448,2.9792-3.8958,3.9375-1.6562.9583-3.5573,1.4375-5.7083,1.4375-1.2812,0-2.474-.2031-3.5833-.6042-1.1146-.401-2.1042-.9792-2.9792-1.7292l-.6667,1.75h-4.1875v-28.5625h5.6667v8.7083c.8021-.5417,1.6927-.9583,2.6667-1.25.9688-.3021,2-.4583,3.0833-.4583ZM265.0244,107.9015c1.125,0,2.1094-.2396,2.9583-.7292.8594-.5,1.5313-1.1771,2.0208-2.0417.5-.875.75-1.8594.75-2.9583,0-1.0833-.25-2.0521-.75-2.9167-.4896-.875-1.1615-1.5625-2.0208-2.0625-.849-.5104-1.8333-.7708-2.9583-.7708-1.0833,0-2.0625.2604-2.9375.7708-.8646.5-1.5417,1.1875-2.0417,2.0625-.4896.8646-.7292,1.8333-.7292,2.9167,0,1.099.2396,2.0781.7292,2.9375.5.849,1.1771,1.5312,2.0417,2.0417.875.5,1.8542.75,2.9375.75Z"/>
    <path class="logoContent" d="M288.7417,113.2557c-1.7656,0-3.3073-.3125-4.625-.9375-1.3229-.625-2.3542-1.5-3.1042-2.625-.7396-1.125-1.1042-2.4375-1.1042-3.9375h5.5208c.026.9323.3594,1.6354,1,2.1042.651.4583,1.4844.6875,2.5.6875.8021,0,1.5052-.1719,2.1042-.5208.5938-.3438.8958-.8646.8958-1.5625,0-.7344-.3958-1.25-1.1875-1.5417-.7917-.3021-1.7448-.5469-2.8542-.7292-.8333-.125-1.7031-.2969-2.6042-.5208-.8906-.2344-1.7083-.5729-2.4583-1.0208-.75-.4427-1.3698-1.0521-1.8542-1.8333-.474-.776-.7083-1.7812-.7083-3.0208,0-1.3177.3542-2.4844,1.0625-3.5.7188-1.0104,1.7083-1.7969,2.9583-2.3542,1.2604-.5521,2.75-.8333,4.4583-.8333,1.6771,0,3.1458.2917,4.3958.875,1.2604.5833,2.2396,1.4062,2.9375,2.4583.6927,1.0417,1.0417,2.2656,1.0417,3.6667h-5.3958c0-.8333-.2813-1.4583-.8333-1.875-.5573-.4167-1.3281-.625-2.3125-.625-.875,0-1.5625.1875-2.0625.5625-.4896.375-.7292.8646-.7292,1.4583,0,.7083.3854,1.1979,1.1667,1.4583.776.25,1.7083.4687,2.7917.6458.8594.1562,1.7396.3438,2.6458.5625.901.224,1.7396.5573,2.5208,1,.776.4323,1.401,1.0365,1.875,1.8125.4844.7812.7292,1.8073.7292,3.0833,0,1.4167-.3646,2.6615-1.0833,3.7292-.724,1.0573-1.75,1.875-3.0833,2.4583-1.3229.5833-2.8542.875-4.6042.875Z"/>
  </g>
  </g>
  </a>
</svg>